<?xml version="1.0" standalone="no"?>
<!DOCTYPE svg PUBLIC "-//W3C//DTD SVG 20010904//EN"
 "http://www.w3.org/TR/2001/REC-SVG-20010904/DTD/svg10.dtd">
<svg version="1.0" xmlns="http://www.w3.org/2000/svg"
 width="512.000000pt" height="512.000000pt" viewBox="0 0 512.000000 512.000000"
 preserveAspectRatio="xMidYMid meet">
<metadata>
Created by potrace 1.11, written by Peter Selinger 2001-2013
</metadata>
<g transform="translate(0.000000,512.000000) scale(0.100000,-0.100000)"
fill="#000000" stroke="none">
<path d="M2211 5109 c-62 -5 -159 -18 -215 -30 -86 -17 -317 -88 -423 -130
-29 -12 -38 -10 -94 16 -80 39 -152 40 -224 5 -69 -33 -292 -184 -395 -267
-266 -214 -562 -560 -691 -808 -50 -97 -53 -166 -12 -257 24 -53 25 -63 14
-92 -42 -104 -113 -336 -130 -421 -31 -156 -44 -388 -38 -670 4 -137 11 -288
17 -335 15 -122 65 -317 116 -451 24 -64 44 -122 44 -129 0 -7 -12 -37 -26
-67 -51 -104 -19 -230 108 -425 166 -253 519 -588 865 -818 182 -121 225 -130
350 -73 l55 26 182 -61 c215 -72 332 -97 521 -111 286 -22 705 -7 890 30 55
11 172 45 260 75 212 73 195 70 260 39 49 -24 64 -27 123 -23 81 6 124 27 289
137 308 206 599 499 812 818 127 190 148 277 94 390 l-26 56 61 181 c75 222
98 333 113 546 12 178 7 566 -11 733 -13 117 -55 284 -111 439 -55 154 -55
149 -24 213 54 110 25 217 -121 431 -98 146 -173 235 -328 389 -147 147 -263
244 -447 376 -209 149 -317 183 -417 131 -59 -31 -96 -28 -217 18 -123 46
-315 95 -430 110 -110 14 -654 21 -794 9z m708 -213 c182 -28 349 -73 509
-138 39 -16 72 -34 72 -39 0 -5 -96 -130 -212 -277 -117 -148 -243 -308 -280
-355 -47 -60 -74 -87 -89 -87 -11 0 -75 7 -142 16 -137 18 -368 15 -498 -7
-42 -7 -83 -10 -91 -6 -16 6 -568 702 -568 716 0 20 297 118 472 156 213 46
592 56 827 21z m-149 -1101 c0 -13 5 -47 11 -76 13 -61 69 -129 134 -161 169
-86 488 -397 610 -593 87 -141 144 -185 241 -185 53 0 59 -17 62 -189 4 -194
-3 -233 -43 -242 -17 -4 -52 -12 -80 -19 -62 -14 -112 -60 -161 -148 -101
-180 -441 -519 -613 -611 -97 -52 -151 -125 -151 -208 0 -65 5 -64 -226 -61
l-209 3 -6 67 c-8 97 -32 126 -198 233 -46 30 -121 87 -168 127 -143 122 -355
363 -405 463 -51 101 -110 145 -195 145 -79 0 -78 -4 -81 197 -4 199 2 233 43
233 93 0 170 51 231 153 136 225 458 543 649 640 42 22 100 86 114 126 6 19
11 50 11 70 0 21 5 42 12 49 9 9 70 12 215 12 l203 0 0 -25z m-2301 -343 c31
-26 185 -148 343 -271 158 -122 292 -229 299 -237 9 -11 8 -31 -7 -92 -25
-101 -25 -305 0 -504 10 -81 16 -153 13 -161 -3 -7 -76 -69 -163 -137 -88 -68
-245 -193 -351 -277 -105 -84 -196 -153 -201 -153 -14 0 -78 174 -117 315
-131 480 -106 1007 71 1470 20 52 41 95 47 95 6 0 36 -22 66 -48z m4277 0 c31
-75 86 -250 109 -347 45 -190 59 -317 59 -535 0 -260 -23 -437 -88 -665 -34
-116 -85 -256 -101 -273 -13 -15 11 -33 -458 337 -143 112 -261 210 -264 217
-2 7 3 59 13 115 20 121 15 385 -10 533 -8 49 -13 93 -10 98 3 5 51 44 107 88
56 43 216 169 355 279 140 111 258 199 263 195 5 -3 16 -22 25 -42z m-2430
-2347 c119 -18 363 -20 471 -3 43 6 96 12 117 12 l40 1 278 -354 c223 -284
276 -357 266 -367 -23 -21 -195 -83 -330 -119 -212 -55 -333 -69 -573 -69
-225 1 -333 13 -543 60 -143 32 -422 121 -422 135 0 5 78 107 173 227 95 119
213 269 262 332 113 147 125 160 145 160 9 0 61 -7 116 -15z"/>
</g>
</svg>
